#!OML:ASF Y:\EmotionMaleHayes\Project 1\Capture day 1\Session 1\Male1.ASF
:FULLY-SPECIFIED
:DEGREES
835
root 48.1961 17.1697 -1.46675 1192.84 86.7185 1194.06
lowerback 3.44793 2.03667 -6.9294
upperback 1.36534 2.51556 -0.698497
thorax -0.786993 1.26273 3.05144
lowerneck -21.9291 0.656227 1.7237
upperneck 20.9939 0.547112 -0.495212
head 10.3503 0.365981 -0.372365
rclavicle 1.30452e-014 8.34896e-015
rhumerus -35.331 9.68458 -94.2317
rradius 31.1368
rwrist 5.17381
rhand -9.85609 -28.8667
rfingers 7.12502
rthumb 16.1222 -58.2161
lclavicle 1.30452e-014 8.34896e-015
lhumerus -30.7257 -8.81552 91.495
lradius 23.8972
lwrist -13.6821
lhand -14.9352 -27.4689
lfingers 7.12502
lthumb 11.2273 2.21069
rfemur 7.36393 -2.56797 11.916
rtibia 4.4868
rfoot -13.784 1.04192
rtoes 6.07104
lfemur 11.4887 -1.21176 -20.7726
ltibia -0.555397
lfoot -12.2936 9.48411
ltoes -2.75442
836
root 48.1964 17.1691 -1.46662 1192.84 86.7199 1194.04
lowerback 3.45655 2.01553 -6.93271
upperback 1.37364 2.48699 -0.680455
thorax -0.781177 1.24802 3.07326
lowerneck -22.1876 0.636655 1.4387
upperneck 21.2123 0.533486 -0.183722
head 10.4753 0.37667 -0.215326
rclavicle 1.55797e-014 -1.05356e-014
rhumerus -35.4061 9.63864 -94.1546
rradius 31.0755
rwrist 4.85406
rhand -9.63303 -29.102
rfingers 7.12502
rthumb 16.337 -58.4339
lclavicle 1.55797e-014 -1.05356e-014
lhumerus -30.688 -9.11927 91.7312
lradius 24.0933
lwrist -13.2021
lhand -14.653 -27.1562
lfingers 7.12502
lthumb 11.4994 2.50836
rfemur 7.31336 -2.51808 11.9266
rtibia 4.53369
rfoot -13.8149 1.03363
rtoes 6.56363
lfemur 11.4957 -1.28429 -20.7969
ltibia -0.613948
lfoot -12.3252 9.58932
ltoes -2.59156
837
root 48.1971 17.1693 -1.46694 1192.71 86.722 1193.92
lowerback 3.46207 1.99653 -6.93486
upperback 1.38801 2.46195 -0.666709
thorax -0.767449 1.23475 3.09006
lowerneck -22.3543 0.645102 1.31528
upperneck 21.3945 0.535391 0.0143805
head 10.5718 0.393884 -0.122776
rclavicle 1.30452e-014 1.07344e-014
rhumerus -35.5061 9.65482 -94.1115
rradius 31.0667
rwrist 4.34412
rhand -9.49878 -29.3429
rfingers 7.12502
rthumb 16.4663 -58.6641
lclavicle 1.30452e-014 1.07344e-014
lhumerus -30.551 -9.39082 91.9466
lradius 24.0727
lwrist -12.8887
lhand -14.5699 -26.9516
lfingers 7.12502
lthumb 11.5796 2.70847
rfemur 7.2951 -2.56651 11.9196
rtibia 4.59752
rfoot -13.8012 1.0492
rtoes 6.08742
lfemur 11.5168 -1.25756 -20.7931
ltibia -0.63862
lfoot -12.4822 9.56867
ltoes -1.68378
838
root 48.1989 17.1692 -1.46796 1192.67 86.7528 1193.86
lowerback 3.49288 1.99439 -6.87656
upperback 1.35551 2.45638 -0.670502
thorax -0.815339 1.23408 3.05213
lowerneck -22.346 0.588343 1.23215
upperneck 21.4743 0.448154 0.163243
head 10.5983 0.367301 -0.0686916
rclavicle 2.2736e-014 -1.19271e-014
rhumerus -35.6828 9.5181 -94.0476
rradius 31.1224
rwrist 3.89316
rhand -9.33154 -29.6689
rfingers 7.12502
rthumb 16.6273 -58.9767
lclavicle 2.2736e-014 -1.19271e-014
lhumerus -30.4734 -9.5414 92.0733
lradius 24.0246
lwrist -12.9927
lhand -14.5905 -26.9486
lfingers 7.12502
lthumb 11.5597 2.71261
rfemur 7.27386 -2.65964 11.9269
rtibia 4.62261
rfoot -13.7898 1.12319
rtoes 5.82069
lfemur 11.5285 -1.18765 -20.7504
ltibia -0.662604
lfoot -12.5204 9.49397
ltoes -1.01837
839
root 48.2001 17.1686 -1.46854 1192.85 86.7807 1194.01
lowerback 3.61834 1.98021 -6.84559
upperback 1.25335 2.42206 -0.656115
thorax -0.98723 1.22403 3.04485
lowerneck -22.1698 0.557184 1.29968
upperneck 21.4071 0.424383 0.0130158
head 10.5415 0.342997 -0.138006
rclavicle -5.70264e-015 3.97569e-015
rhumerus -35.9147 9.41879 -93.972
rradius 31.108
rwrist 3.47068
rhand -9.2369 -29.7776
rfingers 7.12502
rthumb 16.7184 -59.0777
lclavicle -5.70264e-015 3.97569e-015
lhumerus -30.5727 -9.55889 92.1857
lradius 24.1258
lwrist -13.1381
lhand -14.5233 -27.0517
lfingers 7.12502
lthumb 11.6245 2.60584
rfemur 7.24387 -2.71586 11.9458
rtibia 4.63382
rfoot -13.8516 1.15889
rtoes 5.55109
lfemur 11.5023 -1.16446 -20.7184
ltibia -0.65731
lfoot -12.4208 9.48951
ltoes -1.75447
840
root 48.2033 17.1685 -1.47014 1194.04 86.8466 1195.17
lowerback 3.45703 1.94069 -6.71477
upperback 1.34535 2.39179 -0.633471
thorax -0.794552 1.20106 3.00454
lowerneck -22.1671 0.580376 1.41739
upperneck 21.2523 0.476039 -0.231886
head 10.4856 0.34306 -0.23783
rclavicle -2.57178e-015 0
rhumerus -35.7901 9.26238 -93.7873
rradius 31.0744
rwrist 3.23622
rhand -9.02044 -29.8427
rfingers 7.12502
rthumb 16.9268 -59.1251
lclavicle -2.57178e-015 0
lhumerus -30.3625 -9.63979 92.2873
lradius 24.1886
lwrist -13.0087
lhand -14.4446 -27.2095
lfingers 7.12502
lthumb 11.7004 2.44375
rfemur 7.23629 -2.75941 12.0311
rtibia 4.60255
rfoot -13.842 1.25947
rtoes 6.38705
lfemur 11.4747 -1.15662 -20.6271
ltibia -0.633794
lfoot -12.3924 9.48052
ltoes -1.82112
841
root 48.2151 17.1698 -1.47672 1197.72 87.0155 1198.78
lowerback 3.32502 1.87913 -6.39685
upperback 1.29471 2.32609 -0.568956
thorax -0.757335 1.1674 2.90054
lowerneck -22.0601 0.583229 1.44423
upperneck 21.262 0.498979 -0.326225
head 10.4699 0.344677 -0.272659
rclavicle -1.48219e-014 1.19271e-014
rhumerus -35.9634 9.03473 -93.5929
rradius 31.1679
rwrist 3.16974
rhand -8.74063 -30.089
rfingers 7.12502
rthumb 17.1961 -59.3481
lclavicle -1.48219e-014 1.19271e-014
lhumerus -30.4475 -9.71271 92.4569
lradius 24.2739
lwrist -12.8659
lhand -14.4533 -27.2914
lfingers 7.12502
lthumb 11.692 2.36233
rfemur 7.24061 -3.34497 12.1655
rtibia 4.64001
rfoot -13.7519 1.70389
rtoes 5.87609
lfemur 11.478 -1.06744 -20.3856
ltibia -0.667788
lfoot -12.2712 9.31222
ltoes -1.53259
842
root 48.2075 17.1683 -1.47254 1194.67 86.9268 1195.76
lowerback 3.34777 1.91789 -6.5731
upperback 1.37154 2.37556 -0.618039
thorax -0.699988 1.18948 2.94664
lowerneck -22.1112 0.597795 1.49471
upperneck 21.1982 0.504916 -0.350297
head 10.4563 0.347309 -0.288783
rclavicle 1.3741e-014 2.72335e-014
rhumerus -35.882 8.78257 -93.4083
rradius 31.2142
rwrist 3.25869
rhand -8.67534 -30.2377
rfingers 7.12502
rthumb 17.2589 -59.4913
lclavicle 1.3741e-014 2.72335e-014
lhumerus -30.3116 -10.0896 92.6197
lradius 24.3587
lwrist -12.6406
lhand -14.7043 -27.3183
lfingers 7.12502
lthumb 11.4499 2.34902
rfemur 7.1931 -2.98049 12.0854
rtibia 4.66013
rfoot -13.8444 1.40853
rtoes 5.08281
lfemur 11.4606 -1.09387 -20.5264
ltibia -0.665844
lfoot -12.149 9.42557
ltoes -2.55958
843
root 48.2148 17.1685 -1.47704 1197.32 87.0306 1198.35
lowerback 3.35162 1.83925 -6.39641
upperback 1.27618 2.26995 -0.569405
thorax -0.785865 1.14051 2.9013
lowerneck -22.0019 0.661591 1.607
upperneck 21.2225 0.584141 -0.443928
head 10.4466 0.382163 -0.328855
rclavicle 1.07468e-014 1.13307e-014
rhumerus -36.0576 8.64127 -93.277
rradius 31.1811
rwrist 3.60178
rhand -8.596 -30.2588
rfingers 7.12502
rthumb 17.3353 -59.5057
lclavicle 1.07468e-014 1.13307e-014
lhumerus -30.4906 -10.2833 92.8107
lradius 24.3547
lwrist -12.874
lhand -15.3265 -27.4011
lfingers 7.12502
lthumb 10.8498 2.29858
rfemur 7.19281 -3.36776 12.1679
rtibia 4.6522
rfoot -13.8232 1.74999
rtoes 5.3198
lfemur 11.4534 -1.04235 -20.3812
ltibia -0.755956
lfoot -12.0278 9.30326
ltoes -4.25304
844
root 48.2046 17.1681 -1.47093 1194.96 87.06 1196.01
lowerback 3.50306 1.85685 -6.50736
upperback 1.28277 2.27883 -0.558087
thorax -0.869161 1.14739 2.96958
lowerneck -21.9948 0.677169 1.67397
upperneck 21.1585 0.601816 -0.522825
head 10.4226 0.384975 -0.365572
rclavicle 5.87657e-015 1.07344e-014
rhumerus -35.9311 8.4904 -93.1063
rradius 31.0302
rwrist 3.93967
rhand -8.50539 -30.2973
rfingers 7.12502
rthumb 17.4225 -59.5365
lclavicle 5.87657e-015 1.07344e-014
lhumerus -30.3976 -10.4175 92.9191
lradius 24.1904
lwrist -13.54
lhand -16.1566 -27.6331
lfingers 7.12502
lthumb 10.0491 2.10701
rfemur 7.12188 -2.8324 12.3033
rtibia 4.66017
rfoot -13.7451 1.33592
rtoes 6.42931
lfemur 11.4274 -1.09499 -20.3457
ltibia -0.746669
lfoot -12.0901 9.43538
ltoes -4.06614
845
root 48.2063 17.1693 -1.47055 1195.93 87.1511 1196.98
lowerback 3.51341 1.82944 -6.40811
upperback 1.29171 2.24498 -0.522389
thorax -0.86022 1.12983 2.95261
lowerneck -21.9644 0.722273 1.74012
upperneck 21.1317 0.667808 -0.620756
head 10.4087 0.408169 -0.401569
rclavicle 2.48481e-015 -3.08116e-014
rhumerus -35.8818 8.37331 -92.9542
rradius 30.9116
rwrist 4.22013
rhand -8.58066 -30.2761
rfingers 7.12502
rthumb 17.3501 -59.5217
lclavicle 2.48481e-015 -3.08116e-014
lhumerus -30.3059 -10.5137 93.0233
lradius 24.0724
lwrist -13.8361
lhand -16.4855 -27.8882
lfingers 7.12502
lthumb 9.73173 1.867
rfemur 7.1571 -2.75452 12.4643
rtibia 4.59755
rfoot -13.7055 1.19817
rtoes 6.43926
lfemur 11.4253 -1.05481 -20.1991
ltibia -0.725445
lfoot -12.2368 9.35261
ltoes -3.15841
846
root 48.206 17.1686 -1.46426 1195.1 87.2818 1196.21
lowerback 3.57241 1.85036 -6.38017
upperback 1.34492 2.27202 -0.464929
thorax -0.8422 1.14167 2.99408
lowerneck -22.0352 0.759745 1.72638
upperneck 21.1289 0.721938 -0.619823
head 10.4214 0.431327 -0.390676
rclavicle 3.10601e-015 2.98177e-015
rhumerus -35.7607 8.19387 -92.7483
rradius 30.7942
rwrist 4.6753
rhand -8.66157 -30.1976
rfingers 7.12502
rthumb 17.2722 -59.45
lclavicle 3.10601e-015 2.98177e-015
lhumerus -30.1534 -10.5691 93.1178
lradius 24.0543
lwrist -13.9
lhand -16.337 -27.8244
lfingers 7.12502
lthumb 9.87501 1.92405
rfemur 7.21744 -2.23163 12.7501
rtibia 4.51465
rfoot -13.8098 0.735117
rtoes 6.05248
lfemur 11.4858 -1.11607 -20.0132
ltibia -0.707093
lfoot -12.3448 9.46497
ltoes -2.69646
847
root 48.2087 17.1682 -1.47009 1201.21 87.5724 1202.29
lowerback 3.4921 1.79245 -5.88264
upperback 1.38672 2.21806 -0.369977
thorax -0.734975 1.11057 2.82036
lowerneck -22.148 0.750416 1.66631
upperneck 21.1702 0.711412 -0.561008
head 10.4566 0.428598 -0.361129
rclavicle -1.69588e-014 2.38542e-014
rhumerus -35.6125 7.93034 -92.492
rradius 30.677
rwrist 5.2679
rhand -8.7375 -30.1023
rfingers 7.12502
rthumb 17.1991 -59.3612
lclavicle -1.69588e-014 2.38542e-014
lhumerus -30.0383 -10.6328 93.2084
lradius 24.124
lwrist -13.9696
lhand -16.2208 -27.6441
lfingers 7.12502
lthumb 9.9871 2.09898
rfemur 7.19001 -2.62596 13.1166
rtibia 4.55062
rfoot -13.7624 1.00721
rtoes 6.19199
lfemur 11.4837 -1.11986 -19.5924
ltibia -0.723993
lfoot -12.4157 9.3434
ltoes -2.05979
848
root 48.2102 17.1693 -1.46739 1197.87 87.4897 1198.91
lowerback 3.45198 1.80623 -6.07502
upperback 1.39153 2.23365 -0.395919
thorax -0.714793 1.11768 2.90168
lowerneck -22.182 0.768893 1.69715
upperneck 21.2025 0.720433 -0.538268
head 10.4748 0.438323 -0.35661
rclavicle -1.68843e-014 -2.5842e-015
rhumerus -35.5475 7.87051 -92.3427
rradius 30.575
rwrist 5.53177
rhand -8.97759 -30.0789
rfingers 7.12502
rthumb 16.968 -59.3577
lclavicle -1.68843e-014 -2.5842e-015
lhumerus -30.0212 -10.7002 93.2748
lradius 24.264
lwrist -13.9648
lhand -16.0848 -27.5849
lfingers 7.12502
lthumb 10.1184 2.1518
rfemur 7.15773 -2.36742 13.0213
rtibia 4.41915
rfoot -13.7058 0.780828
rtoes 5.78774
lfemur 11.4541 -1.05261 -19.7156
ltibia -0.729938
lfoot -12.4765 9.36645
ltoes -1.58098
